<mxfile host="app.diagrams.net" modified="2020-12-10T14:15:49.835Z" agent="5.0 (Windows NT 10.0; Win64; x64) AppleWebKit/537.36 (KHTML, like Gecko) Chrome/87.0.4280.88 Safari/537.36" etag="xpmjbJCYoai02TVzMg2j" version="14.0.0" type="github">
  <diagram id="D991m_zn4tu6VdX5c534" name="Page-1">
    <mxGraphModel dx="1550" dy="844" grid="1" gridSize="10" guides="1" tooltips="1" connect="1" arrows="1" fold="1" page="1" pageScale="1" pageWidth="1169" pageHeight="827" math="0" shadow="0">
      <root>
        <mxCell id="0" />
        <mxCell id="1" parent="0" />
        <mxCell id="2R432eH97VEHRLHCxxFg-6" style="edgeStyle=orthogonalEdgeStyle;rounded=0;orthogonalLoop=1;jettySize=auto;html=1;" edge="1" parent="1" source="2R432eH97VEHRLHCxxFg-1" target="2R432eH97VEHRLHCxxFg-2">
          <mxGeometry relative="1" as="geometry" />
        </mxCell>
        <mxCell id="2R432eH97VEHRLHCxxFg-1" value="支付请求&lt;br&gt;/api/pay/alipay&lt;br&gt;带订单号和价格" style="rounded=0;whiteSpace=wrap;html=1;fillColor=#dae8fc;strokeColor=#6c8ebf;" vertex="1" parent="1">
          <mxGeometry x="290" y="320" width="120" height="60" as="geometry" />
        </mxCell>
        <mxCell id="2R432eH97VEHRLHCxxFg-7" style="edgeStyle=orthogonalEdgeStyle;rounded=0;orthogonalLoop=1;jettySize=auto;html=1;entryX=0;entryY=0.5;entryDx=0;entryDy=0;" edge="1" parent="1" source="2R432eH97VEHRLHCxxFg-2" target="2R432eH97VEHRLHCxxFg-3">
          <mxGeometry relative="1" as="geometry" />
        </mxCell>
        <mxCell id="2R432eH97VEHRLHCxxFg-2" value="status-3xx&lt;br&gt;跳转到支付页" style="rounded=0;whiteSpace=wrap;html=1;fillColor=#dae8fc;strokeColor=#6c8ebf;" vertex="1" parent="1">
          <mxGeometry x="450" y="260" width="120" height="60" as="geometry" />
        </mxCell>
        <mxCell id="2R432eH97VEHRLHCxxFg-11" style="edgeStyle=orthogonalEdgeStyle;rounded=0;orthogonalLoop=1;jettySize=auto;html=1;entryX=1;entryY=0.5;entryDx=0;entryDy=0;exitX=0.5;exitY=1;exitDx=0;exitDy=0;" edge="1" parent="1" source="2R432eH97VEHRLHCxxFg-3" target="2R432eH97VEHRLHCxxFg-8">
          <mxGeometry relative="1" as="geometry">
            <mxPoint x="710" y="330" as="targetPoint" />
          </mxGeometry>
        </mxCell>
        <mxCell id="2R432eH97VEHRLHCxxFg-14" style="edgeStyle=orthogonalEdgeStyle;rounded=0;orthogonalLoop=1;jettySize=auto;html=1;entryX=0;entryY=0.5;entryDx=0;entryDy=0;" edge="1" parent="1" source="2R432eH97VEHRLHCxxFg-3" target="2R432eH97VEHRLHCxxFg-13">
          <mxGeometry relative="1" as="geometry" />
        </mxCell>
        <mxCell id="2R432eH97VEHRLHCxxFg-3" value="支付页" style="rounded=0;whiteSpace=wrap;html=1;fillColor=#f5f5f5;strokeColor=#666666;fontColor=#333333;" vertex="1" parent="1">
          <mxGeometry x="650" y="230" width="120" height="60" as="geometry" />
        </mxCell>
        <mxCell id="2R432eH97VEHRLHCxxFg-5" style="edgeStyle=orthogonalEdgeStyle;rounded=0;orthogonalLoop=1;jettySize=auto;html=1;entryX=0;entryY=0.5;entryDx=0;entryDy=0;" edge="1" parent="1" source="2R432eH97VEHRLHCxxFg-4" target="2R432eH97VEHRLHCxxFg-1">
          <mxGeometry relative="1" as="geometry" />
        </mxCell>
        <mxCell id="2R432eH97VEHRLHCxxFg-4" value="当前页面" style="rounded=0;whiteSpace=wrap;html=1;fillColor=#f5f5f5;strokeColor=#666666;fontColor=#333333;" vertex="1" parent="1">
          <mxGeometry x="110" y="380" width="120" height="60" as="geometry" />
        </mxCell>
        <mxCell id="2R432eH97VEHRLHCxxFg-9" style="edgeStyle=orthogonalEdgeStyle;rounded=0;orthogonalLoop=1;jettySize=auto;html=1;" edge="1" parent="1" source="2R432eH97VEHRLHCxxFg-8">
          <mxGeometry relative="1" as="geometry">
            <mxPoint x="540" y="520" as="targetPoint" />
          </mxGeometry>
        </mxCell>
        <mxCell id="2R432eH97VEHRLHCxxFg-8" value="支付成功状态" style="rounded=0;whiteSpace=wrap;html=1;fillColor=#dae8fc;strokeColor=#6c8ebf;" vertex="1" parent="1">
          <mxGeometry x="480" y="390" width="120" height="60" as="geometry" />
        </mxCell>
        <mxCell id="2R432eH97VEHRLHCxxFg-10" value="支付成功页面？" style="rounded=0;whiteSpace=wrap;html=1;" vertex="1" parent="1">
          <mxGeometry x="480" y="520" width="120" height="60" as="geometry" />
        </mxCell>
        <mxCell id="2R432eH97VEHRLHCxxFg-12" value="支付成功" style="text;html=1;strokeColor=none;fillColor=none;align=center;verticalAlign=middle;whiteSpace=wrap;rounded=0;" vertex="1" parent="1">
          <mxGeometry x="640" y="400" width="60" height="20" as="geometry" />
        </mxCell>
        <mxCell id="2R432eH97VEHRLHCxxFg-13" value="失败页面？" style="rounded=0;whiteSpace=wrap;html=1;fillColor=#f5f5f5;strokeColor=#666666;fontColor=#333333;" vertex="1" parent="1">
          <mxGeometry x="870" y="230" width="120" height="60" as="geometry" />
        </mxCell>
        <mxCell id="2R432eH97VEHRLHCxxFg-15" value="支付失败" style="text;html=1;strokeColor=none;fillColor=none;align=center;verticalAlign=middle;whiteSpace=wrap;rounded=0;" vertex="1" parent="1">
          <mxGeometry x="790" y="270" width="60" height="20" as="geometry" />
        </mxCell>
      </root>
    </mxGraphModel>
  </diagram>
</mxfile>
